<?xml version="1.0" encoding="UTF-8"?>
<svg id="Calque_2" xmlns="http://www.w3.org/2000/svg" viewBox="0 0 1736.08 1065.75">
  <defs>
    <style>
      .cls-1 {
        fill: #fff;
      }

      .cls-2 {
        fill: none;
      }
    </style>
  </defs>
  <g id="Calque_1-2" data-name="Calque_1">
    <g>
      <path class="cls-2" d="M731.78,294.05c-.32.13-.65.25-.98.37.33-.12.65-.24.98-.37,0,0,0,0,0,0Z"/>
      <path class="cls-2" d="M852.95,278.72c-.81.48-1.42,1.36-1.95,2.34.53-.98,1.13-1.86,1.95-2.34Z"/>
      <path class="cls-2" d="M808.65,289.97c4.96,2.19,9.88,4.85,15.1,5.98,5.42,1.17,10.57.48,15.04-1.69-4.46,2.17-9.61,2.85-15.03,1.69-5.23-1.12-10.14-3.79-15.1-5.98-1.81-.8-3.59-1.36-5.17-.95,1.58-.41,3.36.16,5.17.96Z"/>
      <path class="cls-2" d="M676.95,308.92c-.72-.92-1.57-1.87-2.27-2.84.69.98,1.55,1.92,2.27,2.84Z"/>
      <path class="cls-2" d="M800.36,293.99c-.25-.63-.29-1.32.03-2.11-.32.79-.28,1.48-.03,2.11Z"/>
      <path class="cls-2" d="M732.49,301.26c-.19.47-.39.92-.6,1.37.21-.44.42-.9.6-1.37.43-1.08.27-2.38-.01-3.74.28,1.35.43,2.66.01,3.74Z"/>
      <path class="cls-2" d="M694.36,304.8c2.98-.15,5.97-.33,8.95-.58-2.98.25-5.97.42-8.95.57-3.5.18-6.74-.51-9.53-2.33,2.79,1.81,6.03,2.51,9.53,2.33Z"/>
      <path class="cls-2" d="M677.03,309.02c5.2,6.71,12.87,6.71,20.31,6.38,2.69,0,5.42.2,8.12.26-2.7-.06-5.43-.26-8.12-.26-7.45.34-15.11.33-20.31-6.38Z"/>
      <path class="cls-2" d="M1428.08,423.25c-.67,1.75-1.98,3.03-3.65,3.84-1.58.77-3.78.67-5.22,1.54-.36.21-.61.56-.91.85-.66.64-1.55.97-2.41,1.29-.3.11-.59.21-.89.32-19.37,7.13-39.14,13.06-58.67,19.73-5.82,1.99-11.5,4.43-17.12,6.94-12.11,5.41-25.12,7.49-37.8,10.87-14.57,3.88-28.63,9.8-42.76,15.2-23.26,8.89-47.77,11.91-72.12,15.4-22.88,3.28-45.89,5.66-68.85,8.37-2.64.31-5.33.35-7.99.27-19.91-.54-39.47,2.5-59.11,5.21-16.12,2.23-32.42,3.21-48.67,4.41-4.42.33-7.21,2.48-9.21,5.86-5.4,9.13-12.01,16.6-19.14,24.36-1.34,1.47-2.69,2.94-4.1,4.35-10.25,10.28-23.25,16.59-36.87,21.14-.09.03-.18.06-.28.09-11.46,3.87-27.19,7.79-47.2,9.72-.18.02-.36.04-.55.06-.47.05-.95.09-1.43.13-.22.02-.43.04-.64.05-.33.03-.65.06-.97.08-25.88,2.22-39.92,1.42-47.84-3.85-.05-.03-.1-.06-.16-.1-1.16-.72-2.21-1.64-3.12-2.69-.02-.03-.05-.06-.08-.09-1.89-2.24-3.13-5.08-3.31-8.12-1.62-26.17,9.88-47.25,25.5-66.77,3.53-4.41,7.49-8.48,10.92-12.96,1-1.3,1.73-4.48,1.1-4.99-1.39-1.15-4.15-2.08-5.58-1.42-2.93,1.33-5.82,3.37-7.92,5.81-15.61,18.19-29.42,37.46-34.81,61.47-.13.58-.57,1.09-1.25,2.35-1.72-2.9-3.18-5.24-4.53-7.64-5.28-9.41-10.36-18.92-15.86-28.2-2.09-3.53-4.78-6.85-7.75-9.68-8.05-7.68-16.13-15.4-26.16-20.56-2-1.03-4.5-2.35-6.42-1.94-2.27.49-4.5,2.45-5.99,4.36-.39.5,1.7,3.62,3.22,4.8,7.72,6.02,16.44,10.99,23.24,17.88,6.79,6.89,12.16,15.34,17.33,23.62,5.27,8.44,9.74,17.41,14.18,26.34,2.42,4.87,3.92,10.2,6.08,15.21.75,1.75,1.14,3.25,1.09,4.57-.03.81-.24,1.55-.64,2.24-.99,1.76-3.24,3.16-7.08,4.43-.13.04-.25.08-.38.12-7.94,4.15-18.17,7.67-31.35,10.6l-8.09,1.66c-.07.01-.14.03-.22.04-10.96,2.25-22.15,3.83-32.99,4.62-2.88.22-5.73.38-8.55.48-23.62.82-46.37-2.96-68.48-10.93-.03,0-.07-.02-.1-.04-.01-.01-.03-.01-.04-.02-.09-.03-.18-.07-.26-.1-.01,0-.01-.01-.02-.01-.06-.03-.13-.06-.21-.09-2.31-1.01-9.91-4.48-13.12-6.3-1.26-.72-2.41-1.45-3.46-2.18-1.63-1.19-3.13-2.53-4.52-4.02-.77-.83-1.51-1.69-2.21-2.6-.99-1.26-1.92-2.6-2.79-3.99-4.89-7.81-8.89-8.5-16.29-3.3-2.69,1.89-6.81,2.18-10.33,2.39-16.57,1.01-33.19,1.34-49.73,2.66-22.72,1.82-45.63,2.97-68,6.98-15.15,2.73-30.44,2.48-45.48,5.15-3.02.53-6.31-.07-9.42-.52-11.87-1.69-23.53.67-35.24,1.78-20.71,1.98-41.39,4.37-62.12,6.1-16.73,1.4-33.53,2.06-50.3,3.09-20.43,1.24-40.86,2.6-61.3,3.76-6.11.34-12.27.4-18.37.02-1.63-.1-4.09-2.04-4.54-3.6-4.55-15.83-9.11-31.67-12.92-47.69-1.67-7.06-1.87-14.51-2.19-21.81-.08-1.7,2.03-4.95,3.26-5.02,23.8-1.27,45.61-10.61,68.3-16.36,25.96-6.58,51.96-13,78.06-19,19.44-4.47,39.05-8.16,58.59-12.19,2.77-.57,5.55-1.1,8.33-1.65,22.18-4.37,44.39-8.6,66.53-13.18,13.19-2.72,26.27-6,39.4-9.01,1.13-.26,2.27-.62,3.42-.65,20.4-.55,39.63-6.5,58.87-12.51,6.97-2.18,14.11-3.88,21.28-5.25,16.33-3.13,32.7-6.01,49.09-8.8,7.04-1.19,14.15-2.45,21.25-2.62,3.95-.09,7.88,2.39,11.93,3.04,14.48,2.34,28.96,3.02,43.72,2.34,23.6-1.09,47.29-.95,70.92-.5,24.77.47,48.62-4.38,72.55-9.84,10.57-2.41,21.68-2.34,32.53-3.61,7.94-.93,16.05-.38,23-6.27,11.67-9.91,26.6-11.41,40.94-13.8,17.07-2.85,34.24-5.12,51.39-7.46,10.71-1.46,21.45-2.72,32.19-3.82,2.64-.27,5.29-.55,7.93-.82-32.28,6.06,34.45,43.85,34.45,43.85l185.84-56.3h.02c9.93-.5,19.87-.91,29.78-1.6,19.08-1.32,38.12-3.21,57.22-4.29,18.41-1.05,36.87-1.39,55.31-2.02,3.82-.13,7.65-.08,11.46-.26,2.95-.13,4.35,1.29,4.54,4.07.52,7.64,1.46,15.25,1.95,22.89.33,4.96.39,9.95.4,14.93,0,2.19-.01,4.38-.01,6.56.03.75.05,1.5.18,2.24.62,3.56,2.19,6.88.8,10.51Z"/>
      <path class="cls-2" d="M818.39,305.01c2.93.8,5.82,1.28,8.56,1.52,3.01,0,6.03-.46,8.96-1.27-2.92.82-5.95,1.27-8.95,1.27-2.74-.24-5.63-.72-8.56-1.52Z"/>
      <path class="cls-2" d="M674.19,300.03c-.15.29-.27.58-.39.87.11-.29.24-.58.39-.87Z"/>
      <path class="cls-2" d="M1170.37,374.08c-.1,0-.21.01-.31.01.06,0,.13,0,.19-.01h.12Z"/>
      <path class="cls-2" d="M1155.68,374.77c1.95-.1,3.9-.19,5.84-.28-1.95.09-3.89.18-5.84.28h0Z"/>
      <path class="cls-2" d="M1157.54,374.62c3.37-.19,6.73-.3,10.11-.43-3.38.13-6.75.24-10.11.43Z"/>
      <path class="cls-2" d="M857.86,286.59c.57-2.1.87-4.3.08-5.93.79,1.63.49,3.83-.08,5.93Z"/>
      <path class="cls-2" d="M1641.18,498.23s-.03,0-.04-.01c.01,0,.02,0,.03.01h.01Z"/>
      <path class="cls-2" d="M1641.08,498.23h0s0-.01.01-.01c0,0-.02,0-.02.01Z"/>
      <path class="cls-2" d="M1274.66,589.17c-.35-.28-2.36,1.57-4.32,2.94,1.83,3.86,3.26,6.91,4.69,9.95,1.98-2.26,5.42-4.48,5.48-6.79.05-2.03-3.55-4.32-5.85-6.1Z"/>
      <path class="cls-2" d="M1121.91,56.55c-.58,3.01-2.21,5.94-3.89,8.59-5.23,8.25-5.89,17.4-6.2,26.8-.21,6.27-1.16,12.55-2.18,18.77-2.31,14.11-4.85,28.19-7.34,42.27-1.67,9.49-4.06,18.9-5.02,28.46-1.79,17.94-12.22,29.9-25.82,40-16.58,12.32-33.45,24.14-52.28,32.91-14.67,6.84-30.01,10.47-46.13,11.68-10.1.75-20.06,3.48-30.15,4-16.08.83-32.21.65-48.31.71-5.06.01-5.34-4.34-5.97-7.87-2.3-12.93-4.35-25.91-6.69-38.83-2.9-16.05-6.04-32.05-8.99-48.08-1.42-7.71-.72-8.9,6.85-9.76,20.13-2.28,40.16-5.92,60.58-1.43,6.97,1.53,14.6,1.55,21.71.6,6.6-.88,12.91-4.01,19.37-6.09,8.63-2.78,16.41-6.89,23.67-12.5,5.61-4.33,12.4-7.11,18.57-10.73,2.99-1.76,6.06-3.57,8.53-5.94,1.25-1.21,2.2-4.22,1.53-5.51-.65-1.24-3.53-1.36-5.46-1.87-.59-.16-1.28.03-3.2.12,1.26-4.55,2.08-8.41,3.39-12.09,4.8-13.47,9.57-26.96,14.78-40.28,2.28-5.84,1.18-10.7-1.23-16.19-3.07-7-5.03-14.5-7.35-21.82-.34-1.06-.47-2.57.05-3.43,1.28-2.17,2.83-4.26,4.66-5.97.38-.36,3.21.76,3.51,1.67.89,2.61,4.77,5.01,1.11,8.28-.57.51-.83,1.37-2.11,3.59,3.8.16,7.18,1.28,9.37.13,2.56-1.34,5.19-4.41,5.81-7.18.84-3.73.31-8.01-.58-11.83-.9-3.85,1.15-5.57,3.54-7.43.48-.38,1.67-.73,1.76-.6,1.99,3.12,4.13,6.2,5.62,9.55.42.97-.69,3.41-1.78,4.1-4.3,2.77-5.66,6.6-4.33,11.19,1.24,4.25,5.03,5.05,8.88,4.89,4.76-.19,8.08-2.62,8.41-7.52.37-5.56.09-11.15.09-17.11,4.85,1.08,5.68,4.61,5.59,8.54-.06,2.65-.72,5.28-.84,7.94-.28,6.03,4.55,9.47,9.79,6.61,3.36-1.84,5.75-1.52,9.15-.01,3.12,1.38,7.07.87,11.34,1.25-2.85,6.71,1.44,8.48,6.92,10.18,1.13.35,1.73,4.89,1.27,7.24Z"/>
      <path class="cls-2" d="M914.37,387.9c-3.87-17.34-7.85-34.66-12.02-51.93-1.09-4.49-2.84-8.84-4.58-13.15-4.53-11.25-10.53-22.11-13.55-33.74-4.88-18.77-7.85-38.03-11.61-57.08-3.85-19.6-7.71-39.19-11.49-58.8-.63-3.27-2.46-4.17-5.59-4.34-3.52-.2-6.99-1.25-10.51-1.68-1.35-.16-3.2-.13-4.11.64-3.49,2.98-6.17,6.03-5.77,11.59,1,13.71,2.84,27.54-1.28,41.16-.29.97.66,2.31.93,3.16-2.28,3.57-4.62,6.99-6.71,10.55-3.91,6.66-9.04,11.67-16.5,14.45-12.5,4.67-25.06,8.66-38.45,10.25-25.23,2.97-50.47,3.21-75.75,1.51-7.81-.52-15.64-2.77-18.52-11.21-2.62-7.67-4.22-15.71-5.88-23.67-2-9.61-3.47-19.32-5.47-28.92-.27-1.28-2.38-3.14-3.57-3.08-5.55.24-11.08,6.66-10.64,12.34.4,5.12,1.81,10.17,2.05,15.29.81,17.54,4.79,34.98,1.75,52.65-.17.96.06,1.99.14,2.99.77,10.6,1.58,21.21,2.33,31.81,1.16,16.25,1.92,32.54,3.53,48.74,1.01,10.19,3.33,20.25,4.91,30.4,1.09,7.04,1.87,14.13,2.86,21.18.63,4.47,2.82,6.57,7.77,7.29,15.13,2.22,30.18,1.19,45.34.69,27.38-.91,54.82-.32,82.2-1.25,11.88-.4,23.75-2.6,35.5-4.7,11.93-2.14,23.69-5.3,35.57-7.74,9.62-1.98,19.32-3.54,28.97-5.33,4.33-.8,9-6.27,8.15-10.07ZM732.49,301.26c-.19.47-.39.93-.6,1.37-.12.24-.23.48-.36.72-.24.47-.5.92-.78,1.36-.13.22-.27.44-.42.65-.14.2-.28.41-.44.61h0c-.15.21-.3.41-.45.6-.63.78-1.3,1.49-2.02,2.15-.14.14-.29.27-.44.39-.08.07-.15.14-.23.2-.1.09-.19.17-.29.24-.05.04-.09.08-.14.11h0c-.08.07-.16.13-.24.19-.11.09-.22.18-.34.26-.19.14-.39.28-.59.42-.53.37-1.07.71-1.64,1.02-.03.03-.07.05-.1.06-.21.13-.43.25-.65.37-.01,0-.02,0-.03,0-.02.01-.05.02-.07.03h0c-.09.05-.18.1-.28.14-.34.18-.68.34-1.04.5-.44.2-.88.38-1.33.56-.14.06-.29.11-.44.16-.28.11-.57.22-.85.31-.07.03-.13.05-.2.07-.45.16-.91.3-1.37.43-1.44.42-2.93.76-4.45,1.04-2.36.43-4.79.48-7.24.43-2.7-.06-5.43-.26-8.12-.26-7.45.33-15.11.32-20.31-6.38l-.03-.03s-.04-.04-.05-.07c-.72-.92-1.57-1.86-2.27-2.84-.09-.12-.17-.24-.24-.36-.05-.06-.09-.12-.12-.18-.04-.06-.07-.11-.11-.17-.07-.12-.14-.24-.2-.36h-.01c-.03-.06-.07-.13-.1-.2-.08-.17-.16-.34-.23-.52-.05-.12-.09-.24-.12-.36-.04-.12-.07-.24-.09-.36s-.04-.25-.05-.37c-.01-.11-.02-.23-.02-.34,0-.63.16-1.29.41-1.95.11-.29.24-.59.39-.88.13-.26.28-.52.43-.77.15-.25.32-.5.48-.74.11-.15.22-.3.33-.44.12-.17.26-.33.39-.48.12-.13.23-.27.35-.39.03-.03.06-.05.1-.07.2-.11.57-.12,1.01-.06h.01c.17.02.35.06.54.1.18.03.37.08.55.14.61.18,1.24.44,1.72.74.07.04.12.08.18.12.06.03.11.07.16.11.1.08.2.16.28.24.05.06.1.11.14.17.3.4.6.77.91,1.13l.09.09c.13.15.26.29.39.42.25.25.5.5.76.72.01.03.03.04.04.05,0,0,.01,0,.01.01.02.02.04.03.06.05.04.04.08.07.12.11.01.01.01,0,.01,0,.04.04.08.07.12.11.06.04.11.09.17.14.12.1.24.19.36.28.04.04.08.07.12.1.26.19.53.38.81.56,2.79,1.82,6.03,2.51,9.53,2.33,2.98-.15,5.96-.33,8.95-.57,4.43-.37,8.85-.91,13.18-1.81,3.38-.71,6.16-4.04,9.36-5.93,1.53-.9,3.26-1.45,4.95-2.07.33-.12.66-.24.98-.37.13,1.12.46,2.31.7,3.47.04.19.07.38.11.57.07.37.11.74.14,1.09.05.75,0,1.45-.24,2.08ZM857.86,286.6c-.05.18-.11.37-.16.55-2.26,7.69-11.37,15.2-21.8,18.12-2.92.81-5.95,1.27-8.96,1.27-.26-.02-.52-.05-.78-.08-.13-.01-.26-.02-.39-.04-.13,0-.26-.03-.39-.05-.52-.06-1.05-.13-1.58-.21-.53-.08-1.07-.17-1.6-.27-.54-.1-1.08-.21-1.63-.33-.73-.16-1.46-.34-2.19-.54-2.54-.7-5.12-1.65-7.63-2.91-.63-.32-1.26-.65-1.88-1.01-.15-.09-.31-.18-.46-.28-.15-.08-.31-.17-.46-.27-.07-.04-.15-.09-.23-.14-.16-.1-.32-.2-.47-.3-.09-.05-.18-.11-.27-.17-.29-.19-.57-.38-.86-.58-.22-.16-.44-.32-.67-.49-.23-.16-.45-.33-.67-.5-.45-.34-.88-.69-1.32-1.06-.6-.51-1.26-1.01-1.82-1.55-.07-.07-.13-.14-.2-.2-.07-.07-.13-.14-.2-.21-.06-.07-.12-.14-.18-.22h-.01c-.05-.07-.11-.14-.17-.21-.05-.08-.11-.16-.15-.23-.06-.08-.1-.15-.14-.22-.09-.15-.17-.31-.23-.47-.25-.63-.29-1.32.02-2.11.14-.34.34-.7.62-1.08.74-1.01,1.58-1.56,2.48-1.79,1.58-.41,3.36.16,5.17.95,4.96,2.19,9.87,4.86,15.1,5.98.44.1.88.18,1.32.25.88.14,1.75.23,2.6.28,1.32.07,2.61.03,3.87-.11.34-.03.67-.08.99-.14.04,0,.08,0,.12-.02.14-.02.27-.04.4-.07.26-.04.51-.09.77-.15.18-.04.37-.08.54-.13.02,0,.04,0,.06,0,.28-.07.56-.14.84-.22.69-.21,1.37-.44,2.04-.72.19-.07.39-.15.58-.24.3-.13.6-.27.9-.41,4.47-2.17,8.25-5.83,10.93-10.63.11-.19.21-.39.32-.6h0c.11-.22.21-.43.31-.65.22-.44.44-.89.67-1.32.52-.98,1.13-1.86,1.94-2.34.76-.45,1.7-.54,2.94.02.13.06.25.12.36.18.24.12.44.26.63.41.09.08.18.16.27.24.16.16.31.33.44.51h.01c.06.09.12.18.18.28.05.1.11.2.16.3.79,1.64.49,3.83-.08,5.94Z"/>
      <path class="cls-2" d="M1167.66,374.19c-3.38.13-6.75.24-10.11.43-.62.04-1.24.07-1.86.11v.04c1.95-.09,3.9-.19,5.84-.28,1.03-.05,2.06-.1,3.08-.14,1.82-.09,3.64-.17,5.45-.25-.8.04-1.6.07-2.4.1Z"/>
      <path class="cls-2" d="M1164.61,374.34c-1.03.05-2.05.1-3.08.14,1.03-.05,2.06-.1,3.08-.14Z"/>
      <path class="cls-2" d="M1155.68,374.77v-.04s0,0,0,0c0,.01,0,.03,0,.04,0,0,0,0,0,0Z"/>
      <path class="cls-2" d="M173.03,622.49c-13.14,3.95-26.39,5.08-39.96,3.41-7.82-.96-14.81-3.75-16.43-12.09-.88-4.54.12-10.04,1.99-14.35,2.12-4.88,5.59-9.55,9.5-13.2,8.61-8.03,11.94-17.47,9.61-28.82-1.79-8.79-3.88-17.53-6.2-26.19-5.11-19.11-11.02-38.03-15.51-57.28-3.86-16.53-3.41-33.39,1.11-49.89,4.15-15.15,18.22-19.58,30.91-10.15,9.34,6.94,14.68,16.23,16.82,27.4,2.32,12.05,4.25,24.18,6.28,36.29.35,2.11.32,4.28.47,6.43,1.61,25-2.41,50.36,4.75,75.02,3.65,12.58,6.58,25.37,10.33,37.92,3.64,12.18-1.55,21.85-13.67,25.5Z"/>
      <path class="cls-2" d="M474.41,87.33c-.99,1.63-1.99,3.26-2.98,4.89-.77-.32-1.54-.64-2.32-.96.46-2.02.92-4.04,1.38-6.06,1.31.71,2.61,1.42,3.92,2.13Z"/>
      <path class="cls-2" d="M446.82,102.24c-3.68-8.25-5.12-8.62-11.34-1.3-1.74-6.33-3.26-11.88-4.79-17.44.6-.23,1.19-.47,1.79-.7,4.89,6.44,13.88,9.73,14.34,19.44Z"/>
      <path class="cls-2" d="M1509.21,403.93c-4.41,5.47-10.72,9.88-16.99,13.25-7.7,4.15-16.17,6.97-24.47,9.91-7.19,2.56-14.69,5.02-22.3,2.23-2.33-.86-3.9-3.86-5.74-5.94-.26-.3-.11-.97-.15-1.47-.85-10.27-1.69-20.53-2.54-30.8.53-.09,1.05-.18,1.58-.27-2.03-10.73-4.13-21.45-6.04-32.2-.36-2.02-.7-4.56.18-6.19,8.63-15.96,10.11-32.99,9.27-50.77-.52-11.07.77-22.24,1.6-33.34.44-5.8,3.35-7.35,8.45-4.48,6.35,3.58,10.11,9.53,12.5,16.26,5.14,14.5,7.62,29.55,9.74,44.76,1.47,10.61,4.26,21.12,7.34,31.42,3.23,10.8,12.08,16.11,23.26,15.79,1.98-.05,5.19,1.35,5.84,2.91,4.08,9.79,5.51,20.21-1.53,28.93Z"/>
      <path class="cls-2" d="M1122.27,39.42c-.21.65-2.83,1.29-3.63.79-.99-.61-2.02-2.69-1.68-3.66,1.34-3.85,3.22-7.51,5.08-11.66,3.06,5.04,1.74,9.85.23,14.53Z"/>
      <path class="cls-2" d="M541.99,241.01c-.22-.13-.43-.27-.65-.41.18.11.35.22.52.32.05.03.09.06.13.09Z"/>
      <path class="cls-2" d="M1102.91,31.22c-.8.33-1.12,1.82-1.58,2.64-1.67-4.43-3.85-8.71-4.63-13.22-.23-1.33,3.3-3.77,5.52-4.8.74-.34,3.72,1.88,4.06,3.31,1.04,4.42,2.99,9.46-3.37,12.07Z"/>
      <path class="cls-2" d="M462.21,91.21c-3.17.36-5.44.63-8.05.93-2.35-2.79-4.92-5.85-7.5-8.91.48-.33.96-.65,1.43-.98,4.58,2.9,9.15,5.8,14.12,8.96Z"/>
      <path class="cls-2" d="M359.81,730.9c1.69,1.89,2.45,3.56,3.39,3.66,3.76.4,7.59.56,11.35.26,1.07-.08,1.99-2.01,2.99-3.09-3.59-2.93-6.95-6.3-10.97-8.39-.71-.37-4.2,4.63-6.76,7.56Z"/>
      <path class="cls-2" d="M1538,513.25c-4.59-2.46-6.49-1.57-6.67,3.64-.18,5.3-.04,10.62-.04,15.93.16.01.33.02.49.03.26,3.14.28,6.33.92,9.39.23,1.06,2.23,2.71,3.07,2.53,6.92-1.52,13.4-10.36,13.32-17.52-.09-7.58-5.34-10.93-11.09-14Z"/>
      <path class="cls-2" d="M655.48,593.93c-.09-.04-.17-.07-.26-.1.06.02.12.05.16.07.03.01.06.02.1.03Z"/>
      <path class="cls-1" d="M1170.2,374.08c-.05.01-.1.01-.14.01-.81.04-1.61.07-2.41.1-3.37.13-6.74.24-10.11.43-.62.04-1.24.07-1.86.11-.01-.08-.01-.15-.02-.23,4.84-.14,9.7-.28,14.54-.42Z"/>
      <path class="cls-1" d="M1170.25,374.08c-.06.01-.13.01-.19.01.04,0,.09,0,.14-.01h.05Z"/>
      <path class="cls-1" d="M1157.54,374.62c-.62.04-1.24.06-1.86.11,0,0,0,0,0,0,.62-.04,1.24-.07,1.86-.11Z"/>
      <path class="cls-1" d="M646.5,749.45c-.86-12.58-2.88-25.14-5.27-37.53-2.98-15.43-5.33-31.01-14.1-44.87-5.28-8.35-12.09-12-21.34-12.12-7.99-.1-13.76,4.39-16.82,11.78-4.76,11.45-3.18,23.27-2.4,35.01.65,9.74,1.9,19.44,2.88,29.15-.5.18-1,.35-1.5.52-.55-.32-1.12-.6-1.63-.97-13.92-10.2-25.1-23.2-36.68-35.8-14.99-16.31-32.81-26.56-55.65-25.58-9.47.41-18.79,2.25-25.28,9.95-3.67,4.36-6.33,9.6-9.29,14.53-.55.92-.6,2.27-.54,3.4.86,16.27,1.67,32.54,2.73,48.8.49,7.53,1.49,15.03,2.26,22.54-1.02-.65-1.25-1.42-1.47-2.19-6.91-24.97-17.12-48.25-34.28-68.08-4.68-5.41-9.94-9.82-16.94-11.82-17.5-5-35.09-5.26-52.53-.04-19,5.69-37.31,12.14-46.49,32.57-6.55,14.59-11.82,29.1-12.46,45.34-.61,15.3,2.13,30.18,4.15,45.12,1.21,8.98,4.21,17.76,6.98,26.45,1.86,5.83,7.73,8.6,13.04,7.28,6.28-1.56,12.56-3.13,18.91-4.38,13.32-2.63,24.96-16.47,25.59-30.15.32-6.95,1.04-13.93,2.26-20.78.93-5.23,3.13-6.07,7.86-3.61,10.39,5.39,19.17,12.46,24.52,23.3,2.57,5.2,5.47,10.34,8.9,15,7.97,10.83,20.11,13.99,29.55,8.1,1.53-.96,3.07-2.11,4.2-3.5,8.38-10.33,19.53-19.03,20.22-34.17.86,2.83,1.26,5.54,1.35,8.27.36,11.4,5.46,20.04,15.12,25.97,1.27.79,3.31,1.55,4.46,1.06,4.1-1.73,8.32-3.52,11.85-6.16,11.85-8.87,12.16-23.02,15.13-35.7,2.17-9.29,2.55-19,3.95-28.48.22-1.45,1.56-3.73,2.55-3.82,1.42-.13,3.26,1.12,4.44,2.27,7.73,7.51,15.03,15.49,23.04,22.7,15.34,13.81,33.51,22.76,53.21,28.4,19.61,5.61,40.8-6.53,44.17-28.4,1.49-9.65,2.02-19.64,1.35-29.36ZM374.55,734.82c-3.76.3-7.59.14-11.35-.26-.94-.1-1.7-1.77-3.39-3.66,2.56-2.93,6.05-7.93,6.76-7.56,4.02,2.09,7.38,5.46,10.97,8.39-1,1.08-1.92,3.01-2.99,3.09Z"/>
      <path class="cls-1" d="M206.81,701.03c5.18-5.14,5.92-9.89,2.3-16.33-6.98-12.41-18.44-17.52-32.05-18.91-20.28-2.08-40.2,1.22-60.16,3.86-8.4,1.11-16.84,2.24-25.1,4.05-18.2,3.99-36.35,8.24-54.42,12.77-7.2,1.8-14.76,3.57-21.08,7.22-14.06,8.13-18.6,13.14-15.23,28.68,1.45,6.67,5.34,10.24,12.24,9.59,15.56-1.46,31.09-3.34,46.64-4.88,5.12-.51,10.32-.95,15.44-.67,7.99.45,12.86,5.22,13.99,13.08.76,5.26,1.34,10.56,1.8,15.85,1.58,18.11-.43,35.88-5.25,53.36-1.2,4.35-4.22,7.17-8.73,8-6.22,1.14-12.44,2.45-18.71,3.09-9.84,1.01-17.6,5.18-23.85,12.91-7.47,9.23-7.25,17.41,1.78,25.21,2.84,2.45,6.23,4.84,9.76,5.82,8.9,2.48,18.04,4.14,27.08,6.14.07-.49.15-.98.22-1.47,15.27,1.04,28.75-4.75,42.18-10.79,9.67-4.35,16.7-11.34,21.29-20.85,7.91-16.38,8.55-33.64,6.46-51.29-1.55-13.02-3.27-26.04-4.18-39.11-1.04-15.04,6.98-21.88,20.83-25.41,6.29-1.6,12.67-2.89,19.05-4.07,11.11-2.07,19.92-8.12,27.71-15.84Z"/>
      <path class="cls-1" d="M1590.66,526.99c-1.81-11.5-3.27-23.07-5.72-34.44-2.98-13.84-10.91-23.77-24.53-29.23-11.08-4.45-22.69-5.85-34.21-5.97-15.09-.16-30.19,1.59-45.29,2.55-7.43.48-13.76,3.47-19.23,8.46-10.15,9.26-11.41,25.25-1.94,35.34,4.06,4.33,9.49,7.59,14.75,10.53,3.07,1.72,5.16,3.52,5.74,6.89,2.1,12.13,4.52,24.21,6.03,36.42.81,6.57-2.07,12.53-5.63,18.23-3.92,6.28-7.46,12.91-10.25,19.75-2.62,6.42,1.92,19.81,7.24,22.59,9.15,4.79,25.09,4.74,32.31-1.69,2.1-1.87,5.28-2.81,8.12-3.5,6.44-1.56,13.01-2.56,19.46-4.08,3.2-.75,6.5-1.7,9.33-3.32,10.73-6.13,20.35-13.81,28.69-22.89,3.87-4.22,7.03-9.19,9.95-14.15,6.11-10.39,5.01-22.13,5.74-34.41-.14-1.78-.15-4.46-.56-7.08ZM1535.77,544.77c-.84.18-2.84-1.47-3.07-2.53-.64-3.06-.66-6.25-.92-9.39-.16-.01-.33-.02-.49-.03,0-5.31-.14-10.63.04-15.93.18-5.21,2.08-6.1,6.67-3.64,5.75,3.07,11,6.42,11.09,14,.08,7.16-6.4,16-13.32,17.52Z"/>
      <path class="cls-1" d="M286.48,806.93c-11.28-1.79-22.69-2.84-34.03-4.24-1.04-.13-2.06-.51-4.49-1.14,3.45-2.08,5.66-3.73,8.13-4.83,6.17-2.77,10.9-7.71,10.28-14-.64-6.45-3.29-13.51-9.7-17.14-8.2-4.64-16.94-7.77-26.73-4.01-.13-.66-.26-1.32-.4-1.99,2.74-.8,5.6-1.32,8.19-2.45,4.93-2.17,10.26-3.99,14.4-7.25,4.61-3.62,6.76-8.99,6.51-15.4-.53-13.99-17.98-23.84-29.08-25.37-12.78-1.76-24.51,2.45-35.47,8.05-11.63,5.94-20.79,14.64-21.9,28.89-.47,5.96-.99,11.98-.71,17.94,1.1,23.96,4.42,47.68,8.56,71.28,1.14,6.49,3.64,12.67,10,15.2,6.69,2.67,13.92,5.35,20.97,5.51,21.45.48,43.01-.26,63.91-5.56,6.93-1.76,13.4-6.28,19.37-10.53,5.28-3.75,5.53-9.92,5.34-16.23-.24-8.16-4.95-15.45-13.13-16.75Z"/>
      <path class="cls-1" d="M1455.07,547.84c-1.29-11.74-3.43-23.17-15.56-29.98-7.42-4.17-19.01-5.65-22.51-.04-3.83,6.14-7.37,12.8-9.24,19.73-1.96,7.27-1.8,15.11-2.62,23.32-.69-2.19-1.09-3.8-1.7-5.33-4.18-10.48-7.91-21.17-12.79-31.31-3.1-6.45-8.98-9.94-16.76-9.45-7.12.45-13.45,1.78-17.05,8.94-9.01,17.89-11.04,36.88-8.29,56.36,1.79,12.66,4.9,25.12,7.27,37.7,2.01,10.72,6.52,20.21,13.49,28.56,4.88,5.84,11.23,7.74,18.4,5.25,14.6-5.08,29.16-10.1,42.09-19.06,13.19-9.15,24.64-19.26,26.62-36.44.4-3.46,1.02-6.96.88-10.41-.53-12.62-.83-25.3-2.21-37.84Z"/>
      <path class="cls-1" d="M1321.44,566.46c-10.1-20.66-27.76-29.46-49.4-31.99-4.21.46-8.17,1.15-12.15,1.3-12.96.48-23.3,5.69-30.95,16.28-12.65,17.5-16.5,37.07-11.93,57.77,4.8,21.74,15.89,40.09,34.18,53.48,6.33,4.63,13.23,8.3,21.34,6.02,5.33-1.49,10.58-3.7,15.46-6.33,14.12-7.59,25.11-19.08,33.01-32.49,12.23-20.75,10.91-42.61.44-64.04ZM1275.03,602.06c-1.43-3.04-2.86-6.09-4.69-9.95,1.96-1.37,3.97-3.22,4.32-2.94,2.3,1.78,5.9,4.07,5.85,6.1-.06,2.31-3.5,4.53-5.48,6.79Z"/>
      <path class="cls-1" d="M1193.66,643.07c-7.35,0-14.75,1.64-22.04,3.05-4.03.78-7.06.14-9.91-2.84-7.53-7.89-9.55-18.21-11.76-28.14-3.53-15.88-5.7-31.98-13.47-46.74-6.91-13.12-13.73-17.14-28.47-14.59-4.72.82-8.27,3.17-8.99,8.04-1.21,8.21-3.15,16.56-2.64,24.72,1.11,17.87.99,35.92,5.68,53.48,2.91,10.9,4.7,22.09,7.43,33.04,2.61,10.46,5.76,20.79,8.76,31.15,2.3,7.94,3.9,9.07,12.43,9.2,1,.02,2,0,3,0,.02.15.03.31.05.46,3.95-.5,8.03-.51,11.81-1.59,10.83-3.12,21.36-7.45,32.33-9.84,11.86-2.58,21.75-8.79,31.94-14.57,3.69-2.09,6.98-5.06,10.06-8.03,6.77-6.51,3.02-17.42-1.88-24.14-6-8.23-14.41-12.66-24.35-12.67Z"/>
      <path class="cls-1" d="M1089.65,670.92c-16.07-1.94-32.14-2.36-47.62,3.64-3.07,1.19-4.67.58-5.62-2.55-1.2-3.98-2.67-7.88-3.92-11.84-3.32-10.57-1.08-19.88,6.28-28.12,7.05-7.9,14.23-15.71,20.87-23.95,5.35-6.63,4.91-14.35-1.09-18.53-3.37-2.36-7.74-4.08-11.81-4.47-10.46-1-20.62,1.89-29.95,6.02-6.27,2.78-13.27,7.21-16.48,12.86-5.31,9.36-8.97,20.05-11.26,30.62-3.98,18.37-.62,36.69,3.35,54.82,2.59,11.87,6.78,23.11,14.35,32.58,9.54,11.94,22.42,17.31,37.78,16.48.08.4.17.81.25,1.21,8.2-1.82,16.45-3.45,24.57-5.56,4.12-1.07,8.64-2.21,11.88-4.73,14.55-11.31,20.05-26.8,18.99-44.85-.38-6.53-5.01-12.96-10.57-13.63Z"/>
      <polygon class="cls-1" points="1641.12 498.21 1641.11 498.21 1641.11 498.21 1641.11 498.21 1641.12 498.21"/>
      <path class="cls-1" d="M1641.11,498.21s0,0-.01.01h.08s-.02,0-.03-.01c-.01,0-.02,0-.03,0,0,0,0,0,0,0Z"/>
      <path class="cls-1" d="M1679.68,525.94c-5.41.77-10.76,1.98-16.16,2.88-3.19.53-6.43.85-9.64,1.27-.13-.53-.26-1.05-.39-1.57,1.85-2.09,3.73-4.15,5.56-6.25,1.95-2.24,3.75-4.63,5.82-6.76,3.15-3.25,5.69-6.67,3.78-11.46-2.46-6.13-6.04-8.62-12.23-8.08-5.12.45-10.19,1.45-15.28,2.21l-.03.03s.02,0,.03.01c.01,0,.03.01.04.01h-.01s0,0,.01,0h-.1c-4.25,4.58-5.38,4.66-8.06,0,2.9,0,5.48,0,8.06,0,0,0,0,0,0,0h0s.01-.01.02-.01c0,0,0,0,0,0-2.43-.88-4.83-2.36-7.29-2.44-2.77-.1-4.95.22-5.26-3.39-.27-3.06-.53-5.07,3.46-6.78,9.7-4.17,19.26-8.94,28.21-14.54,5.44-3.4,5.51-10.05,4.35-15.92-1.19-6.06-4.89-10.22-11.44-10.81-4.96-.44-9.97-.31-14.91-.84-14.07-1.51-27.48-.59-39.42,8.35-5.94,4.46-9.48,9.71-8.71,17.31.37,3.64,1.07,7.25,1.3,10.9.17,2.61-.22,5.26-.34,7.89-.17,4.03-1.21,8.28-.31,12.06,3.82,16.18,7.91,32.32,12.53,48.29,2.71,9.35,6,18.65,10.17,27.43,3.57,7.52,7.89,8.19,15.79,5.16,5.41-2.08,10.91-4.08,16.53-5.46,11.97-2.94,23.97-5.88,34.71-12.09,8.63-4.99,16.96-10.89,15.07-22.8-1.51-9.45-6.07-15.97-15.87-14.59Z"/>
      <path class="cls-1" d="M1641.09,498.23c-2.58,0-5.16,0-8.06,0,2.67,4.66,3.81,4.58,8.06,0Z"/>
      <polygon class="cls-1" points="1641.11 498.21 1641.11 498.21 1641.11 498.21 1641.11 498.21"/>
      <path class="cls-1" d="M1641.09,498.23h.1s0,0-.01,0h-.08s0,0,0,0Z"/>
      <path class="cls-1" d="M1641.14,498.22s-.02,0-.03-.01h0s.02,0,.03.01Z"/>
      <path class="cls-1" d="M1725.16,1060.67c3.67,1.7,7.13,3.31,10.92,5.08-1.01-6.15-5.8-8.27-10.92-5.08Z"/>
      <path class="cls-1" d="M673.41,303.2c.09.98.6,1.94,1.27,2.88.7.97,1.55,1.92,2.27,2.84.02.02.04.04.05.07,0,.01.02.02.03.03,5.2,6.7,12.86,6.71,20.31,6.38,2.69,0,5.42.2,8.12.26,2.45.06,4.88,0,7.24-.43,8.08-1.47,15.48-4.78,19.19-12.6.21-.44.41-.89.6-1.37.42-1.08.27-2.38-.01-3.74-.24-1.16-.56-2.35-.7-3.47-.32.13-.65.25-.98.37-1.69.62-3.43,1.17-4.95,2.07-3.2,1.89-5.98,5.22-9.36,5.93-4.33.9-8.75,1.44-13.18,1.81-2.98.25-5.97.42-8.95.58-3.5.18-6.74-.51-9.53-2.33-1.45-.94-2.79-2.18-3.97-3.77-.84-1.13-4.18-2.04-4.69-1.49-.73.78-1.46,1.78-1.98,2.82-.15.29-.27.58-.39.87-.3.79-.46,1.57-.39,2.29Z"/>
      <path class="cls-1" d="M731.79,294.05s0,0,0,0c.13,1.12.46,2.31.7,3.47-.24-1.16-.56-2.35-.69-3.47Z"/>
      <path class="cls-1" d="M725.85,296.49c1.53-.91,3.26-1.45,4.95-2.07-1.69.62-3.43,1.17-4.96,2.07-3.2,1.89-5.98,5.22-9.36,5.93-4.33.9-8.74,1.44-13.18,1.81,4.44-.37,8.85-.9,13.18-1.81,3.38-.71,6.16-4.04,9.36-5.93Z"/>
      <path class="cls-1" d="M673.8,300.91c-.3.79-.46,1.57-.39,2.3.09.98.61,1.94,1.27,2.88-.67-.94-1.18-1.9-1.27-2.88-.07-.72.09-1.51.39-2.29Z"/>
      <path class="cls-1" d="M680.86,298.7c1.18,1.59,2.51,2.83,3.97,3.77-1.45-.94-2.78-2.18-3.96-3.77-.84-1.14-4.19-2.04-4.7-1.5-.73.78-1.45,1.78-1.98,2.83.53-1.04,1.25-2.04,1.98-2.82.51-.55,3.85.36,4.69,1.49Z"/>
      <path class="cls-1" d="M712.7,315.23c-2.36.43-4.79.48-7.24.43,2.45.06,4.88,0,7.23-.43,8.09-1.47,15.48-4.79,19.19-12.6-3.71,7.82-11.11,11.13-19.19,12.6Z"/>
      <path class="cls-1" d="M676.95,308.92s.03.04.05.06c0,.01.02.02.03.03,0-.01-.02-.02-.03-.03-.02-.02-.04-.04-.05-.07Z"/>
      <path class="cls-1" d="M800.36,293.99c.51,1.28,1.9,2.3,3.1,3.31,4.64,3.92,9.83,6.31,14.92,7.71,2.93.8,5.82,1.28,8.56,1.52,3.01,0,6.03-.45,8.95-1.27,10.43-2.92,19.55-10.42,21.8-18.12.05-.18.11-.37.16-.55.57-2.1.87-4.3.08-5.93-.39-.8-1.04-1.47-2.05-1.92-1.24-.56-2.18-.47-2.94-.02-.81.48-1.42,1.36-1.95,2.34-.46.86-.86,1.79-1.3,2.57-2.68,4.8-6.46,8.46-10.93,10.63-4.47,2.17-9.62,2.85-15.04,1.69-5.22-1.12-10.14-3.79-15.1-5.98-1.81-.8-3.59-1.36-5.17-.96-.9.23-1.74.78-2.48,1.79-.28.38-.48.74-.62,1.08-.31.79-.28,1.48-.03,2.11Z"/>
      <path class="cls-1" d="M800.36,293.99c.5,1.28,1.9,2.3,3.1,3.32,4.64,3.92,9.83,6.31,14.93,7.7-5.09-1.4-10.29-3.79-14.92-7.71-1.2-1.01-2.6-2.03-3.1-3.31Z"/>
      <path class="cls-1" d="M835.9,305.26c10.43-2.91,19.54-10.42,21.8-18.11.05-.18.11-.37.16-.56-.05.19-.1.37-.16.55-2.26,7.69-11.37,15.2-21.8,18.12Z"/>
      <path class="cls-1" d="M855.89,278.74c1.01.45,1.66,1.12,2.05,1.92-.39-.8-1.04-1.47-2.05-1.92-1.24-.56-2.18-.47-2.94-.02.76-.45,1.7-.53,2.94.02Z"/>
      <path class="cls-1" d="M803.48,289.02c-.9.23-1.74.78-2.48,1.79-.28.38-.48.74-.62,1.08.14-.34.34-.7.62-1.08.74-1.01,1.58-1.56,2.48-1.79Z"/>
      <path class="cls-1" d="M849.71,283.63c.43-.77.83-1.71,1.3-2.57-.46.86-.87,1.8-1.3,2.57-2.68,4.8-6.46,8.46-10.92,10.63,4.47-2.17,8.25-5.83,10.93-10.63Z"/>
      <path class="cls-1" d="M1265.77,370.25c-2.3.12-4.61.24-6.91.37-9.69.56-19.35,1.5-29.05,1.85-18.44.65-36.88,1.01-55.33,1.49-1.37.04-2.74.08-4.11.12,4.71-.22,9.39-.43,13.99-.63,1.53-.07,3.06-.13,4.57-.2.76-.03,1.52-.07,2.27-.1.79-.03,1.57-.07,2.35-.1,1.4-.06,2.79-.12,4.17-.18.12,0,.25-.01.37-.01,1.79-.08,3.57-.15,5.32-.22,1.17-.05,2.33-.1,3.48-.15,2.88-.12,5.69-.23,8.44-.34.55-.03,1.1-.05,1.64-.07,1.06-.04,2.12-.09,3.16-.13.57-.02,1.14-.04,1.71-.06.23-.01.46-.02.69-.03.4-.02.8-.03,1.2-.05.37-.01.73-.03,1.1-.05.18,0,.37-.01.55-.02,1.37-.05,2.71-.1,4.03-.15,1.49-.06,2.96-.12,4.38-.17.14,0,.26,0,.38-.02.32-.01.64-.02.96-.03.04-.01.08-.01.12-.01.42,0,.82-.03,1.2-.05,1.87-.07,3.67-.13,5.4-.2.18,0,.34,0,.5-.02.28-.01.55-.02.8-.03.36-.01.71-.03,1.04-.04h.09c.15-.01.3-.01.45-.02.46-.01.9-.03,1.32-.05.12,0,.23-.01.34-.01.04,0,.07,0,.1-.01.02.01.04,0,.06,0,1.58-.05,3.07-.11,4.48-.16.65-.02,1.28-.05,1.9-.07,1-.04,1.96-.07,2.87-.1.29-.01.58-.03.86-.03.29-.02.57-.03.84-.03.27-.02.53-.02.78-.03.27-.01.53-.02.78-.03.12-.01.24-.01.36-.01.19-.01.37-.02.54-.02.16-.01.31-.01.46-.02h.07c.45-.02.87-.03,1.26-.05.41-.01.79-.02,1.16-.04.34-.01.66-.02.96-.03h.04c.25-.01.48-.02.7-.03.48-.01.86-.03,1.16-.03Z"/>
      <path class="cls-1" d="M1259.96,370.45c-.17,0-.35.01-.54.02.12-.01.24-.02.37-.02h.17Z"/>
      <path class="cls-1" d="M1235.25,371.36s-.08,0-.12.01c.01,0,.01-.01.01-.01h.11Z"/>
      <path class="cls-1" d="M1235.14,371.36s0,.01-.01.01c-.32.01-.64.02-.96.03.33-.01.65-.02.97-.04Z"/>
      <path class="cls-1" d="M1260.42,370.43c-.15.01-.3.01-.46.02h-.17c.21-.01.42-.01.63-.02Z"/>
      <path class="cls-1" d="M638.41,585.25c-1.9-1.33-3.44-2.68-4.52-4.02,1.39,1.49,2.89,2.83,4.52,4.02Z"/>
      <path class="cls-1" d="M641.87,587.43c-1.21-.65-2.36-1.38-3.46-2.18,1.05.73,2.2,1.46,3.46,2.18Z"/>
      <path class="cls-1" d="M541.99,241.01c-.22-.13-.43-.27-.65-.41-.65-.43-1.3-.89-1.94-1.36-.49-.36-.97-.73-1.45-1.12-.86-.68-1.72-1.4-2.56-2.14.26.21.52.42.77.62.41.32.79.63,1.16.92.08.06.17.13.25.2.45.34.87.67,1.26.97.05.03.1.07.15.11.34.26.64.49.93.7.17.13.32.24.47.35.37.27.7.51.96.7.21.15.39.27.52.37.05.03.09.06.13.09Z"/>
      <path class="cls-1" d="M954.65,563.48c.11-.06.23-.13.34-.19.04-.03.09-.06.12-.08-.15.09-.31.18-.46.27ZM953.84,563.97c.08-.05.16-.11.24-.15-.19.11-.38.23-.58.34.12-.06.23-.13.34-.19ZM655.38,593.9s.09.04.14.05c-.01-.01-.03-.01-.04-.02-.04-.01-.07-.02-.1-.03Z"/>
      <polygon class="cls-1" points="1155.68 374.73 1155.68 374.73 1155.68 374.73 1155.68 374.73 1155.68 374.73"/>
      <path class="cls-1" d="M655.22,593.83c.06.02.11.04.16.07-.66-.24-1.32-.48-1.98-.73.09.01.17.02.26.03.41.17.82.33,1.24.5.1.04.2.08.3.12.01,0,.01.01.02.01Z"/>
      <path class="cls-1" d="M655.52,593.95s-.09-.03-.14-.05c.03.01.06.02.1.03,0,.01.03.01.04.02Z"/>
      <path class="cls-1" d="M773.95,598.12c-2.58.58-5.27,1.13-8.09,1.66l8.09-1.66Z"/>
      <path class="cls-1" d="M955.11,563.21s-.08.05-.12.08c-.12.07-.28.17-.47.29-.1.05-.21.12-.33.19-.11.06-.22.13-.35.2-.11.06-.22.13-.34.19.2-.11.39-.23.58-.34.19-.11.38-.22.57-.34.15-.09.31-.18.46-.27Z"/>
      <path class="cls-1" d="M535.39,235.98c-3.3-2.67-7.53-6.33-12.14-10.86.01-.13.02-.25.03-.39,4.3,3.79,8.12,7.77,12.11,11.25Z"/>
      <path class="cls-1" d="M1519.14,366.32c-1.67-4.02-5.74-5.32-10.11-5.01-10.79.75-17.13-3.23-19.57-13.92-2.84-12.47-4.44-25.23-6.94-37.79-2.34-11.73-4.55-23.56-8-34.99-1.98-6.57-3.5-14.17-10.81-17.86-3.12-1.58-6.13-3.38-9.3-4.86-6.89-3.22-14.28-1.24-17.42,5.66-2.5,5.49-4.49,11.61-4.89,17.57-.84,12.28-.69,24.64-.53,36.96.14,11.44-.74,22.53-5.94,33.02-1.75,3.54-3.58,5.59-7.81,5.52-11.3-.19-22.62-.42-33.91.03-20.95.83-41.9,2.08-62.84,3.28-14.57.83-29.13,1.94-43.7,2.77-8.64.49-17.29.68-25.94,1.02-8.13.32-16.29.33-24.39,1.05-7.09.64-14.09,2.26-21.18,3.07-2.74.32-5.59-.62-8.39-.58-8.14.11-16.29.23-24.41.7-11.59.67-23.16,1.59-34.73,2.55-6.57.55-13.11,1.84-19.68,2.01-10.46.27-20.98-.84-31.37-.08-17.24,1.26-34.42,3.37-51.59,5.42-19.79,2.37-39.6,4.72-59.3,7.75-15.29,2.35-30.42,5.72-45.61,8.69-2.64.52-5.27.91-6.04-2.45-1.85-8.09-3.16-16.31-5.26-24.33-3.4-12.98-6.72-26.02-11.06-38.7-4.14-12.11-9.63-23.75-14.34-35.67-1.89-4.76-1.21-5.6,3.9-5.58,7.97.02,15.97.64,23.91.17,11.77-.7,23.49-2.24,35.24-3.22,18.62-1.55,37.12-3.55,54.85-10.05,7.62-2.8,15.83-4.15,23.2-7.45,13.61-6.1,25.53-14.81,35.96-25.65,8.85-9.2,18.49-17.66,27.29-26.92,2.69-2.83,4.6-7.03,5.43-10.91,2.91-13.63,5.27-27.38,7.69-41.11,2.35-13.4,4.54-26.84,6.76-40.27,1.3-7.87,2.67-15.73,3.7-23.63.63-4.75.02-9.73,1.15-14.31,1.4-5.68,3.98-11.09,6.14-16.58,3.9-9.91,6.05-20.09,4-30.7-.81-4.16-2.04-8.42-4.06-12.09-1-1.8-4.23-2.39-6.47-3.5-1.74-.88-4.46-1.28-5.08-2.65-3.1-6.93-10.63-8.04-16.2-5.73-6.45,2.68-12.2,1.81-18.16-1.32-1.71-.89-4.38-.99-6.24-.35-3.04,1.06-4.98.27-7.03-1.88-3.36-3.52-7.5-4.55-11.78-2.01-3.26,1.94-6.52,4.18-9.02,6.98-2.17,2.43-4.2,3.65-7.49,3.95-10.9,1.02-20.05,11.15-18.48,21.48,1.15,7.61,3.67,15.17,6.64,22.3,2.1,5.04,3.2,9.5,1.49,14.82-6.08,18.84-11.87,37.76-17.88,56.62-.53,1.65-1.48,3.68-2.85,4.47-9.81,5.62-19.47,11.65-29.76,16.24-15.66,6.98-32.32,7.2-49.06,4.61-13.53-2.1-26.86-.59-40.24,1.56-7.87,1.25-16.08,3.27-23.74,2.16-10.22-1.47-19.81.07-29.62,1.63-1.25.2-2.88.36-3.84-.25-5.56-3.56-10.97-7.34-16.43-11.06-4.08-2.79-7.81-6.41-12.29-8.21-4.01-1.61-7.28-4.37-9.54-8.04-1.65-2.67-1.99-5.85-3.14-8.73-2-.81-4.49-1.53-6.14-.14-7.09,6,7.22,19.64,11.17,23.1,6.11,5.36,13.39,9.18,20.57,12.9,4.72,2.45,7.96,4.69,6.7,11.29-1.1,5.73-.52,12.04.5,17.88,1.77,10.08,1.41,20.14-1.43,29.64-3.61,12.08-10.07,22.22-23.68,26.09-19.2,5.45-38.69,8.18-58.6,9.22-12.31,0-24.61,0-36.92,0-1.5,0-3-.02-4.49-.14-9.92-.79-12.33-3.29-14.49-13.08-3.6-16.39-7.85-32.64-11.2-49.08-.62-3.05,1.04-7.11,2.81-9.99,3.86-6.28,7.92-12.44,12.06-18.54,3.37-4.97,7.19-11.1,11.62-15.16.68-.62,1.46-1.47,1.12-2.32-.14-.36-.45-.61-.74-.84-1.41-1.14-2.85-2.29-4.56-2.9-1.71-.6-3.75-.56-5.16.58-1,.8-1.56,2.02-2.07,3.19-1.87,4.22-4.29,7.65-6.33,11.72-1.84,3.19-3.68,6.38-5.68,9.48-3.51,5.43-6.68,11.44-11.36,15.68-5.33,4.82-11.98,8.33-18.41,11.73-5.17,2.73-7.06,6.34-6.79,12.05.09,2.08-1.53,5.08-3.3,6.27-8.1,5.45-16.4,10.62-24.88,15.46-8.48,4.85-16.85,10.4-26,13.46-16.46,5.51-31.46.89-44.42-10.39-6.15-5.35-12.28-10.75-18.22-16.32-2.7-2.54-5.27-5.34-7.33-8.41-6.12-9.09-11.93-18.38-17.89-27.58-6.93-10.7-14.85-20.93-18.15-33.53-1.74-6.63-1.44-13.34,3.46-18.77,5.92-6.57,11.31-13.23,14.89-21.59,4.67-10.89-1.54-22.38-13.41-23.04-3.09-.18-6.71.28-9.12-1.17-4.49-2.71-7.97-1.96-12.03.52-1.44.89-3.92.85-5.64.32-1.99-.63-3.97-1.98-5.39-3.52-3.3-3.57-6.62-2.7-10.41-1.05-1.8.78-4.28,1.34-5.99.73-7.51-2.7-12.54-.31-14.61,7.34-.36,1.31-1.02,2.79-2.01,3.65-2.59,2.28-5.52,4.17-8.19,6.37-8.24,6.8-10.69,26.58-5.26,33.23,4.38,5.37,8.54,10.92,12.6,16.53.92,1.27,1.96,3.82,1.37,4.63-4.52,6.22-4.61,13.77-6.93,20.61-4.99,14.63-4.45,29.9-6.34,44.84-1.85,14.64,3.18,28.41,7.72,42.32,6.23,19.04,14.83,36.11,29.35,50.28,17.95,17.51,39.04,28.98,63.82,31.16,32.08,2.82,64.25,1.2,96.02-4.77,14.4-2.7,30-.87,43.23-12.15.63,2.98,1.07,4.55,1.28,6.15,2.22,17.3,4.53,34.59,6.56,51.91,1.14,9.71,1.52,19.51,2.82,29.2.57,4.24-.46,5.64-4.62,6.07-8.09.84-16.17,1.97-24.18,3.36-10.49,1.83-20.91,4.01-31.36,6.07-9.77,1.93-19.59,3.65-29.28,5.96-9.04,2.15-17.82,5.44-26.9,7.38-12.34,2.64-24.91,4.18-37.28,6.7-25.12,5.12-50.14,10.67-75.24,15.85-5.99,1.24-12.2,1.41-18.2,2.63-10.08,2.06-20.02,4.76-30.1,6.84-12.23,2.52-24.65,4.2-36.78,7.09-21.69,5.18-43.26,10.89-64.83,16.56-26.56,6.98-53.06,14.22-79.62,21.19-4.3,1.13-8.8,1.53-13.22,2.14-3.23.45-5.16-.92-5.27-4.35-.12-3.82-.23-7.64-.33-11.47-.21-7.97.47-16.09-.81-23.89-2.32-14.1-4.7-28.35-9.07-41.89-5.52-17.1-16.52-29.86-35.41-33.57-14.46-2.84-23.63,4.35-27.95,16.63-5.2,14.78-7.11,30.24-5.03,45.83,3.42,25.68,10.47,50.47,18.83,74.97,2.66,7.79,3.99,16.11,5.2,24.3.78,5.29-1.21,10.1-5.55,13.78-8.7,7.39-13.69,16.76-15.56,28.11-2.75,16.75,8.44,32.53,25.34,33.99,9.23.79,18.65.96,27.86.07,14.96-1.44,28.28-6.43,35.55-21.27.58-1.18,2.71-2.25,4.14-2.28,19.42-.33,38.86-.14,58.26-.75,14.45-.46,28.87-1.75,43.28-2.95,18.91-1.57,37.81-3.38,56.7-5.15,14.74-1.39,29.47-2.98,44.21-4.26,9.42-.82,18.86-1.47,28.3-1.8,7.47-.25,15.02.77,22.43.07,16.23-1.53,32.37-3.94,48.57-5.73,24.48-2.71,48.96-5.47,73.49-7.65,13.91-1.23,27.91-1.45,41.88-1.83,1.81-.05,4.29,1.19,5.42,2.64,8.13,10.49,19.47,15.95,31.44,20.29,27.54,9.98,56.08,11.54,84.78,8.14,15.97-1.89,31.7-5.89,47.47-9.25,12.78-2.72,25.14-6.52,35.15-15.71,1.24-1.14,4.31-1.77,5.69-1.05,13.84,7.25,29,6.62,43.58,6.06,24.32-.93,48.24-5.39,71.27-13.88,23.59-8.69,42.93-22.86,55.92-44.44,3.97-6.59,8.64-8.71,15.48-9.31,14.57-1.28,29.11-2.96,43.68-4.39,17.22-1.68,34.44-3.35,51.68-4.84,17.88-1.55,35.8-2.59,53.65-4.39,12.07-1.21,24.02-3.54,36.07-5.01,25.88-3.14,51.18-8.21,75.44-18.3,11.75-4.89,24.25-8.02,36.48-11.74,9.55-2.91,19.31-5.14,28.77-8.31,12.3-4.11,24.32-9.06,36.6-13.26,8.47-2.9,17.03-5.55,25.61-8.12,3.84-1.15,7.39-2.06,10.9-3.97,3.78-2.06,7.65-3.99,11.78-5.27,5.44-1.69,11.41-2.19,16.8-.33,3.16,1.09,6.07,2.96,9.36,3.53,2.85.48,5.76-.05,8.6-.58,6.99-1.31,12.66-2.93,18.93-6.39,5.65-3.11,11.31-6.28,17.23-8.83,11.28-4.87,20.65-11.92,27.33-22.31,8.61-13.39,2.59-25.97-2.55-38.39ZM470.49,85.2c1.31.71,2.61,1.42,3.92,2.13-.99,1.63-1.99,3.26-2.98,4.89-.77-.32-1.54-.64-2.32-.96.46-2.02.92-4.04,1.38-6.06ZM448.09,82.25c4.58,2.9,9.15,5.8,14.12,8.96-3.17.36-5.44.63-8.05.93-2.35-2.79-4.92-5.85-7.5-8.91.48-.33.96-.65,1.43-.98ZM432.48,82.8c4.89,6.44,13.88,9.73,14.34,19.44-3.68-8.25-5.12-8.62-11.34-1.3-1.74-6.33-3.26-11.88-4.79-17.44.6-.23,1.19-.47,1.79-.7ZM648.68,306.97c-.52,1.69-1.95,3.38-3.43,4.44-2.94,2.12-6.05,3.45-9.25,4.27l-17.5,4.22-7.71,1.49c-29.76,5.43-76.31,10.79-108.12,4.53-20.2-3.92-36.85-14.56-51.34-29.08-12.02-12.07-19.23-26.4-23.04-42.82-4.19-18.09-5.26-36.44-6.03-54.92-.53-12.67,1.54-24.85,4.01-37.06.5-2.49,1.61-5.3,3.37-7.01,6.22-6.08,4.06-11.42-.81-16.95-4.68-5.32-9.02-10.96-13.17-16.71-4.68-6.49-2.75-13.62,0-19.96.9-2.07,5.75-2.69,8.92-3.3.67-.13,2.59,2.62,2.68,4.12.08,1.37-1.54,2.84-2.4,4.27-.85,1.42-1.68,2.85-2.52,4.27,1.93.98,4.36,3.23,5.68,2.7,3.16-1.27,5.8-3.84,9.09-6.19,4.99,4.75,10.67,4.31,16.45-.76,1.08-.94,3-1.06,4.57-1.25,3.33-.41,6.68-.8,10.02-.82,1.43,0,2.85,1.01,4.3,1.48,3.34,1.08,6.7,3,10.04,2.96,4.53-.05,6.61-4.52,4.87-8.77-1.01-2.46-2.33-4.84-2.99-7.39-.28-1.1.75-2.55,1.18-3.84,1.11.53,2.52.8,3.26,1.65,4.11,4.64,3.86,12.17-.78,17.91-3.13,3.88-6.41,7.72-10.13,11.01-6.47,5.73-5.22,13.43-5.37,20.49-.22,10.44,4.04,19.6,9.76,28.31.73,1.11,1.45,2.22,2.18,3.33.73,1.1,1.45,2.21,2.17,3.33.15.23.31.46.45.7,1.71,2.62,3.4,5.24,5.08,7.88.31.48.62.97.93,1.46.81,1.28,1.62,2.56,2.42,3.85.82,1.3,1.62,2.6,2.42,3.91.49.78.97,1.56,1.45,2.35,0,.01.01.01.01.02l.03.04c.51.87,1.03,1.73,1.56,2.58.41.66.83,1.32,1.25,1.97.88,1.36,1.78,2.68,2.69,3.98.46.65.91,1.29,1.38,1.92.45.64.92,1.26,1.39,1.88.47.62.94,1.24,1.41,1.84.47.61.94,1.2,1.41,1.79.48.59.95,1.17,1.43,1.75.45.54.9,1.08,1.35,1.6,3.36,3.96,6.75,7.53,9.95,10.68.01-.13.02-.25.03-.39,4.3,3.79,8.12,7.77,12.11,11.25.26.21.52.42.77.62.41.32.79.63,1.16.92.08.06.17.13.25.2.45.34.87.67,1.26.97.05.03.1.07.15.11.33.25.64.48.93.7.17.13.32.24.47.35.37.27.7.51.96.7.21.15.39.27.52.37.05.03.09.06.13.09.05.03.09.07.13.09.08.05.12.08.12.08,26.8,16.73,54.37,12.68,79.21-6.8,6.61-5.19,13.72-9.74,21.78-15.42.76,4.53,1.42,7.52,1.73,10.55.74,7.28,1.58,14.57,1.89,21.87.29,6.6-.32,13.24-.11,19.85.32,10.12.99,20.22,1.55,30.33.1,1.83.89,3.81.39,5.41ZM1116.96,36.55c1.34-3.85,3.22-7.51,5.08-11.66,3.06,5.04,1.74,9.85.23,14.53-.21.65-2.83,1.29-3.63.79-.99-.61-2.02-2.69-1.68-3.66ZM1102.22,15.84c.74-.34,3.72,1.88,4.06,3.31,1.04,4.42,2.99,9.46-3.37,12.07-.8.33-1.12,1.82-1.58,2.64-1.67-4.43-3.85-8.71-4.63-13.22-.23-1.33,3.3-3.77,5.52-4.8ZM879.79,166.2c20.13-2.28,40.16-5.92,60.58-1.43,6.97,1.53,14.6,1.55,21.71.6,6.6-.88,12.91-4.01,19.37-6.09,8.63-2.78,16.41-6.89,23.67-12.5,5.61-4.33,12.4-7.11,18.57-10.73,2.99-1.76,6.06-3.57,8.53-5.94,1.25-1.21,2.2-4.22,1.53-5.51-.65-1.24-3.53-1.36-5.46-1.87-.59-.16-1.28.03-3.2.12,1.26-4.55,2.08-8.41,3.39-12.09,4.8-13.47,9.57-26.96,14.78-40.28,2.28-5.84,1.18-10.7-1.23-16.19-3.07-7-5.03-14.5-7.35-21.82-.34-1.06-.47-2.57.05-3.43,1.28-2.17,2.83-4.26,4.66-5.97.38-.36,3.21.76,3.51,1.67.89,2.61,4.77,5.01,1.11,8.28-.57.51-.83,1.37-2.11,3.59,3.8.16,7.18,1.28,9.37.13,2.56-1.34,5.19-4.41,5.81-7.18.84-3.73.31-8.01-.58-11.83-.9-3.85,1.15-5.57,3.54-7.43.48-.38,1.67-.73,1.76-.6,1.99,3.12,4.13,6.2,5.62,9.55.42.97-.69,3.41-1.78,4.1-4.3,2.77-5.66,6.6-4.33,11.19,1.24,4.25,5.03,5.05,8.88,4.89,4.76-.19,8.08-2.62,8.41-7.52.37-5.56.09-11.15.09-17.11,4.85,1.08,5.68,4.61,5.59,8.54-.06,2.65-.72,5.28-.84,7.94-.28,6.03,4.55,9.47,9.79,6.61,3.36-1.84,5.75-1.52,9.15-.01,3.12,1.38,7.07.87,11.34,1.25-2.85,6.71,1.44,8.48,6.92,10.18,1.13.35,1.73,4.89,1.27,7.24-.58,3.01-2.21,5.94-3.89,8.59-5.23,8.25-5.89,17.4-6.2,26.8-.21,6.27-1.16,12.55-2.18,18.77-2.31,14.11-4.85,28.19-7.34,42.27-1.67,9.49-4.06,18.9-5.02,28.46-1.79,17.94-12.22,29.9-25.82,40-16.58,12.32-33.45,24.14-52.28,32.91-14.67,6.84-30.01,10.47-46.13,11.68-10.1.75-20.06,3.48-30.15,4-16.08.83-32.21.65-48.31.71-5.06.01-5.34-4.34-5.97-7.87-2.3-12.93-4.35-25.91-6.69-38.83-2.9-16.05-6.04-32.05-8.99-48.08-1.42-7.71-.72-8.9,6.85-9.76ZM657.24,276.88c-.08-1-.31-2.03-.14-2.99,3.04-17.67-.94-35.11-1.75-52.65-.24-5.12-1.65-10.17-2.05-15.29-.44-5.68,5.09-12.1,10.64-12.34,1.19-.06,3.3,1.8,3.57,3.08,2,9.6,3.47,19.31,5.47,28.92,1.66,7.96,3.26,16,5.88,23.67,2.88,8.44,10.71,10.69,18.52,11.21,25.28,1.7,50.52,1.46,75.75-1.51,13.39-1.59,25.95-5.58,38.45-10.25,7.46-2.78,12.59-7.79,16.5-14.45,2.09-3.56,4.43-6.98,6.71-10.55-.27-.85-1.22-2.19-.93-3.16,4.12-13.62,2.28-27.45,1.28-41.16-.4-5.56,2.28-8.61,5.77-11.59.91-.77,2.76-.8,4.11-.64,3.52.43,6.99,1.48,10.51,1.68,3.13.17,4.96,1.07,5.59,4.34,3.78,19.61,7.64,39.2,11.49,58.8,3.76,19.05,6.73,38.31,11.61,57.08,3.02,11.63,9.02,22.49,13.55,33.74,1.74,4.31,3.49,8.66,4.58,13.15,4.17,17.27,8.15,34.59,12.02,51.93.85,3.8-3.82,9.27-8.15,10.07-9.65,1.79-19.35,3.35-28.97,5.33-11.88,2.44-23.64,5.6-35.57,7.74-11.75,2.1-23.62,4.3-35.5,4.7-27.38.93-54.82.34-82.2,1.25-15.16.5-30.21,1.53-45.34-.69-4.95-.72-7.14-2.82-7.77-7.29-.99-7.05-1.77-14.14-2.86-21.18-1.58-10.15-3.9-20.21-4.91-30.4-1.61-16.2-2.37-32.49-3.53-48.74-.75-10.6-1.56-21.21-2.33-31.81ZM173.03,622.49c-13.14,3.95-26.39,5.08-39.96,3.41-7.82-.96-14.81-3.75-16.43-12.09-.88-4.54.12-10.04,1.99-14.35,2.12-4.88,5.59-9.55,9.5-13.2,8.61-8.03,11.94-17.47,9.61-28.82-1.79-8.79-3.88-17.53-6.2-26.19-5.11-19.11-11.02-38.03-15.51-57.28-3.86-16.53-3.41-33.39,1.11-49.89,4.15-15.15,18.22-19.58,30.91-10.15,9.34,6.94,14.68,16.23,16.82,27.4,2.32,12.05,4.25,24.18,6.28,36.29.35,2.11.32,4.28.47,6.43,1.61,25-2.41,50.36,4.75,75.02,3.65,12.58,6.58,25.37,10.33,37.92,3.64,12.18-1.55,21.85-13.67,25.5ZM954.99,563.29c-.12.07-.28.17-.47.29-.1.06-.21.12-.33.19-.11.06-.22.13-.35.2-.11.06-.22.13-.34.19.2-.11.39-.23.58-.34.19-.11.38-.22.57-.34.15-.09.31-.18.46-.27-.03.02-.08.05-.12.08ZM1428.08,423.25c-.67,1.75-1.98,3.03-3.65,3.84-1.58.77-3.78.67-5.22,1.54-.36.21-.61.56-.91.85-.66.64-1.55.97-2.41,1.29-.3.11-.59.21-.89.32-19.37,7.13-39.14,13.06-58.67,19.73-5.82,1.99-11.5,4.43-17.12,6.94-12.11,5.41-25.12,7.49-37.8,10.87-14.57,3.88-28.63,9.8-42.76,15.2-23.26,8.89-47.77,11.91-72.12,15.4-22.88,3.28-45.89,5.66-68.85,8.37-2.64.31-5.33.35-7.99.27-19.91-.54-39.47,2.5-59.11,5.21-16.12,2.23-32.42,3.21-48.67,4.41-4.42.33-7.21,2.48-9.21,5.86-5.4,9.13-12.01,16.6-19.14,24.36-1.34,1.47-2.69,2.94-4.1,4.35-10.25,10.28-23.25,16.59-36.87,21.14-.09.03-.18.06-.28.09-11.46,3.87-27.19,7.79-47.2,9.72-.18.02-.36.04-.55.06-.47.05-.95.09-1.43.13-.22.02-.43.04-.64.05-.33.03-.65.06-.97.08-25.88,2.22-39.92,1.42-47.84-3.85-.05-.03-.1-.06-.16-.1-1.16-.72-2.21-1.64-3.12-2.69-.02-.03-.05-.06-.08-.09-1.89-2.24-3.13-5.08-3.31-8.12-1.62-26.17,9.88-47.25,25.5-66.77,3.53-4.41,7.49-8.48,10.92-12.96,1-1.3,1.73-4.48,1.1-4.99-1.39-1.15-4.15-2.08-5.58-1.42-2.93,1.33-5.82,3.37-7.92,5.81-15.61,18.19-29.42,37.46-34.81,61.47-.13.58-.57,1.09-1.25,2.35-1.72-2.9-3.18-5.24-4.53-7.64-5.28-9.41-10.36-18.92-15.86-28.2-2.09-3.53-4.78-6.85-7.75-9.68-8.05-7.68-16.13-15.4-26.16-20.56-2-1.03-4.5-2.35-6.42-1.94-2.27.49-4.5,2.45-5.99,4.36-.39.5,1.7,3.62,3.22,4.8,7.72,6.02,16.44,10.99,23.24,17.88,6.79,6.89,12.16,15.34,17.33,23.62,5.27,8.44,9.74,17.41,14.18,26.34,2.42,4.87,3.92,10.2,6.08,15.21.75,1.75,1.14,3.25,1.09,4.57-.03.81-.24,1.55-.64,2.24-.99,1.76-3.24,3.16-7.08,4.43-.13.04-.25.08-.38.12-7.94,4.15-18.17,7.67-31.35,10.6-2.58.58-5.27,1.13-8.09,1.66-.07.01-.14.03-.22.04-10.96,2.25-22.15,3.83-32.99,4.62-2.88.22-5.73.38-8.55.48-23.62.82-46.37-2.96-68.48-10.93-.03,0-.07-.02-.1-.04-.05-.01-.09-.03-.14-.05-.66-.24-1.32-.48-1.98-.73.09.01.17.02.26.03.41.17.82.33,1.24.5.03.01.06.02.09.03-2.31-1.01-9.91-4.48-13.12-6.3-1.21-.65-2.36-1.38-3.46-2.18-1.9-1.33-3.44-2.68-4.52-4.02-.77-.83-1.51-1.69-2.21-2.6-.99-1.26-1.92-2.6-2.79-3.99-4.89-7.81-8.89-8.5-16.29-3.3-2.69,1.89-6.81,2.18-10.33,2.39-16.57,1.01-33.19,1.34-49.73,2.66-22.72,1.82-45.63,2.97-68,6.98-15.15,2.73-30.44,2.48-45.48,5.15-3.02.53-6.31-.07-9.42-.52-11.87-1.69-23.53.67-35.24,1.78-20.71,1.98-41.39,4.37-62.12,6.1-16.73,1.4-33.53,2.06-50.3,3.09-20.43,1.24-40.86,2.6-61.3,3.76-6.11.34-12.27.4-18.37.02-1.63-.1-4.09-2.04-4.54-3.6-4.55-15.83-9.11-31.67-12.92-47.69-1.67-7.06-1.87-14.51-2.19-21.81-.08-1.7,2.03-4.95,3.26-5.02,23.8-1.27,45.61-10.61,68.3-16.36,25.96-6.58,51.96-13,78.06-19,19.44-4.47,39.05-8.16,58.59-12.19,2.77-.57,5.55-1.1,8.33-1.65,22.18-4.37,44.39-8.6,66.53-13.18,13.19-2.72,26.27-6,39.4-9.01,1.13-.26,2.27-.62,3.42-.65,20.4-.55,39.63-6.5,58.87-12.51,6.97-2.18,14.11-3.88,21.28-5.25,16.33-3.13,32.7-6.01,49.09-8.8,7.04-1.19,14.15-2.45,21.25-2.62,3.95-.09,7.88,2.39,11.93,3.04,14.48,2.34,28.96,3.02,43.72,2.34,23.6-1.09,47.29-.95,70.92-.5,24.77.47,48.62-4.38,72.55-9.84,10.57-2.41,21.68-2.34,32.53-3.61,7.94-.93,16.05-.38,23-6.27,11.67-9.91,26.6-11.41,40.94-13.8,17.07-2.85,34.24-5.12,51.39-7.46,10.71-1.46,21.45-2.72,32.19-3.82,2.64-.27,5.29-.55,7.93-.82,1.95,0,4.11-.67,6.06-.92,2.78-.36,5.57-.67,8.37-.95,7.4-.74,14.83-1.32,22.25-1.86,19.51-1.41,39.05-2.48,58.58-3.47,4.18-.21,8.38-.28,12.55-.63.57-.04,1.15-.07,1.73-.11-.01-.08-.01-.15-.02-.23,4.84-.14,9.7-.28,14.54-.42h.17c4.71-.22,9.39-.43,13.99-.63,1.53-.07,3.06-.13,4.57-.2.76-.03,1.52-.07,2.27-.1.79-.03,1.57-.07,2.35-.1,1.4-.06,2.79-.12,4.17-.18.12,0,.25-.01.37-.01,1.79-.08,3.57-.15,5.32-.22,1.17-.05,2.33-.1,3.48-.15,2.88-.12,5.69-.23,8.44-.34.55-.03,1.1-.05,1.64-.07,1.06-.04,2.12-.09,3.16-.13.57-.02,1.14-.04,1.71-.06.23-.01.46-.02.69-.03.4-.02.8-.03,1.2-.05.37-.01.73-.03,1.1-.05.18,0,.37-.01.55-.02,1.37-.05,2.71-.1,4.03-.15,1.49-.06,2.96-.12,4.38-.17.14,0,.26,0,.38-.02.33-.01.65-.02.97-.04h.11c.42,0,.82-.03,1.2-.05,1.87-.07,3.67-.13,5.4-.2.18,0,.34,0,.5-.02.28-.01.55-.02.8-.03.36-.01.71-.03,1.04-.04h.09c.15-.01.3-.01.45-.02.46-.01.9-.03,1.32-.05.12,0,.23-.01.34-.01.04,0,.07,0,.1-.01.02.01.04,0,.06,0,1.58-.05,3.07-.11,4.48-.16.65-.02,1.28-.05,1.9-.07,1-.04,1.96-.07,2.87-.1.29-.01.58-.03.86-.03.29-.02.57-.03.84-.03.27-.02.53-.02.78-.03.27-.01.53-.02.78-.03.12-.01.24-.01.36-.01.12-.01.24-.02.37-.02.21-.01.42-.01.63-.02h.07c.45-.02.87-.03,1.26-.05.41-.01.79-.02,1.16-.04.34-.01.66-.02.96-.03h.04c.25-.01.48-.02.7-.03.48-.01.86-.03,1.16-.03.07-.01.14-.01.2-.01.25,0,.41-.02.46-.02h.02c9.93-.5,19.87-.91,29.78-1.6,19.08-1.32,38.12-3.21,57.22-4.29,18.41-1.05,36.87-1.39,55.31-2.02,3.82-.13,7.65-.08,11.46-.26,2.95-.13,4.35,1.29,4.54,4.07.52,7.64,1.46,15.25,1.95,22.89.33,4.96.39,9.95.4,14.93,0,2.19-.01,4.38-.01,6.56.03.75.05,1.5.18,2.24.62,3.56,2.19,6.88.8,10.51ZM1509.21,403.93c-4.41,5.47-10.72,9.88-16.99,13.25-7.7,4.15-16.17,6.97-24.47,9.91-7.19,2.56-14.69,5.02-22.3,2.23-2.33-.86-3.9-3.86-5.74-5.94-.26-.3-.11-.97-.15-1.47-.85-10.27-1.69-20.53-2.54-30.8.53-.09,1.05-.18,1.58-.27-2.03-10.73-4.13-21.45-6.04-32.2-.36-2.02-.7-4.56.18-6.19,8.63-15.96,10.11-32.99,9.27-50.77-.52-11.07.77-22.24,1.6-33.34.44-5.8,3.35-7.35,8.45-4.48,6.35,3.58,10.11,9.53,12.5,16.26,5.14,14.5,7.62,29.55,9.74,44.76,1.47,10.61,4.26,21.12,7.34,31.42,3.23,10.8,12.08,16.11,23.26,15.79,1.98-.05,5.19,1.35,5.84,2.91,4.08,9.79,5.51,20.21-1.53,28.93Z"/>
    </g>
    <path class="cls-1" d="M727.64,21.18c-8.6,0-16.67,1.92-22.19,5.5-31.4,20.32-37.34,59.86-29.31,90.03,2.74,10.29,7.46,18.8,13.63,24.6,1.37,1.3,2.86,2.5,4.45,3.58,2.01,1.37,4.18,2.54,6.46,3.47,7.34,3.03,16.24,3.89,25.73,2.48,18.08-2.67,34.83-11.45,51.03-19.94,2.14-1.12,4.27-2.24,6.39-3.33.2-.1.38-.2.55-.29,3.31-1.76,7.37-4.26,9.72-8.21,1.23-2.06,2.86-3.82,4.43-5.53.92-.99,1.86-2.02,2.69-3.06,2.02-2.56,1.72-11.32.01-13.07-6.48-6.65-7.48-6.73-15.27-1.31-.79.55-1.61,1-2.41,1.43-.25.14-.5.27-.75.41l-3.42,1.94c-4.35,2.48-8.71,4.96-13.08,7.4-2.55,1.42-5.09,2.86-7.63,4.31-6.6,3.75-13.42,7.64-20.37,11.01-5.67,2.76-11.6,4.54-17.15,5.14-4.15.45-9.34-.67-13.53-2.94-9.27-5.03-10.65-13.92-11.33-23.35-1.4-19.32,3.89-34.75,16.17-47.16,6.27-6.34,15.09-9.55,24.21-8.8,8.76.72,16.58,5.1,21.46,12.01,3.9,5.51,5.53,12.01,4.71,18.81l-.39,3.26-2.21-2.44c-.93-1.02-1.39-2.14-1.8-3.13-.1-.25-.21-.5-.32-.75-.65-1.45-1.26-2.94-1.85-4.39-1.5-3.69-2.92-7.18-5.07-10.15-1.59-2.19-5.22-4.15-8.44-4.56-1.14-.15-4.44,2.33-4.86,3.92-1.51,5.74-5.13,6.6-8.81,6.68-1.33.03-2.68.25-4.1.49-.55.09-1.1.18-1.65.26-8.18,1.21-12.97,5.65-14.23,13.21-.91,5.42-1.15,11.1-.69,16.44.68,8.1,5.08,14.98,11.77,18.4,6.59,3.37,14.29,2.95,21.1-1.15,5.04-3.03,11.22-6.4,18.87-8.45,9.22-2.49,15.72-10.03,20.86-17.08,4.81-6.6,5.4-14.02,1.79-22.69-4.88-11.71-11.98-21.9-21.69-31.17-8.54-8.13-21.51-11.84-33.47-11.84Z"/>
  </g>
</svg>